# Tiled2Unity generated file. Do not modify by hand.
# Wavefront file for 'overworld_final_mesh_0002.obj'

# Vertices (Count = 420)
v -528 -592 -0.37
v -544 -592 -0.37
v -544 -576 -0.37
v -528 -576 -0.37
v -544 -592 -0.37
v -560 -592 -0.37
v -560 -576 -0.37
v -544 -576 -0.37
v -560 -592 -0.37
v -576 -592 -0.37
v -576 -576 -0.37
v -560 -576 -0.37
v -576 -592 -0.37
v -592 -592 -0.37
v -592 -576 -0.37
v -576 -576 -0.37
v -592 -592 -0.37
v -608 -592 -0.37
v -608 -576 -0.37
v -592 -576 -0.37
v -608 -592 -0.37
v -624 -592 -0.37
v -624 -576 -0.37
v -608 -576 -0.37
v -624 -592 -0.37
v -640 -592 -0.37
v -640 -576 -0.37
v -624 -576 -0.37
v -640 -592 -0.37
v -656 -592 -0.37
v -656 -576 -0.37
v -640 -576 -0.37
v -656 -592 -0.37
v -672 -592 -0.37
v -672 -576 -0.37
v -656 -576 -0.37
v -528 -608 -0.38
v -544 -608 -0.38
v -544 -592 -0.38
v -528 -592 -0.38
v -544 -608 -0.38
v -560 -608 -0.38
v -560 -592 -0.38
v -544 -592 -0.38
v -560 -608 -0.38
v -576 -608 -0.38
v -576 -592 -0.38
v -560 -592 -0.38
v -576 -608 -0.38
v -592 -608 -0.38
v -592 -592 -0.38
v -576 -592 -0.38
v -592 -608 -0.38
v -608 -608 -0.38
v -608 -592 -0.38
v -592 -592 -0.38
v -608 -608 -0.38
v -624 -608 -0.38
v -624 -592 -0.38
v -608 -592 -0.38
v -624 -608 -0.38
v -640 -608 -0.38
v -640 -592 -0.38
v -624 -592 -0.38
v -640 -608 -0.38
v -656 -608 -0.38
v -656 -592 -0.38
v -640 -592 -0.38
v -656 -608 -0.38
v -672 -608 -0.38
v -672 -592 -0.38
v -656 -592 -0.38
v -528 -624 -0.39
v -544 -624 -0.39
v -544 -608 -0.39
v -528 -608 -0.39
v -544 -624 -0.39
v -560 -624 -0.39
v -560 -608 -0.39
v -544 -608 -0.39
v -560 -624 -0.39
v -576 -624 -0.39
v -576 -608 -0.39
v -560 -608 -0.39
v -576 -624 -0.39
v -592 -624 -0.39
v -592 -608 -0.39
v -576 -608 -0.39
v -592 -624 -0.39
v -608 -624 -0.39
v -608 -608 -0.39
v -592 -608 -0.39
v -608 -624 -0.39
v -624 -624 -0.39
v -624 -608 -0.39
v -608 -608 -0.39
v -624 -624 -0.39
v -640 -624 -0.39
v -640 -608 -0.39
v -624 -608 -0.39
v -640 -624 -0.39
v -656 -624 -0.39
v -656 -608 -0.39
v -640 -608 -0.39
v -656 -624 -0.39
v -672 -624 -0.39
v -672 -608 -0.39
v -656 -608 -0.39
v -528 -640 -0.4
v -544 -640 -0.4
v -544 -624 -0.4
v -528 -624 -0.4
v -544 -640 -0.4
v -560 -640 -0.4
v -560 -624 -0.4
v -544 -624 -0.4
v -560 -640 -0.4
v -576 -640 -0.4
v -576 -624 -0.4
v -560 -624 -0.4
v -576 -640 -0.4
v -592 -640 -0.4
v -592 -624 -0.4
v -576 -624 -0.4
v -592 -640 -0.4
v -608 -640 -0.4
v -608 -624 -0.4
v -592 -624 -0.4
v -608 -640 -0.4
v -624 -640 -0.4
v -624 -624 -0.4
v -608 -624 -0.4
v -624 -640 -0.4
v -640 -640 -0.4
v -640 -624 -0.4
v -624 -624 -0.4
v -640 -640 -0.4
v -656 -640 -0.4
v -656 -624 -0.4
v -640 -624 -0.4
v -656 -640 -0.4
v -672 -640 -0.4
v -672 -624 -0.4
v -656 -624 -0.4
v -528 -656 -0.41
v -544 -656 -0.41
v -544 -640 -0.41
v -528 -640 -0.41
v -544 -656 -0.41
v -560 -656 -0.41
v -560 -640 -0.41
v -544 -640 -0.41
v -560 -656 -0.41
v -576 -656 -0.41
v -576 -640 -0.41
v -560 -640 -0.41
v -576 -656 -0.41
v -592 -656 -0.41
v -592 -640 -0.41
v -576 -640 -0.41
v -592 -656 -0.41
v -608 -656 -0.41
v -608 -640 -0.41
v -592 -640 -0.41
v -608 -656 -0.41
v -624 -656 -0.41
v -624 -640 -0.41
v -608 -640 -0.41
v -624 -656 -0.41
v -640 -656 -0.41
v -640 -640 -0.41
v -624 -640 -0.41
v -640 -656 -0.41
v -656 -656 -0.41
v -656 -640 -0.41
v -640 -640 -0.41
v -656 -656 -0.41
v -672 -656 -0.41
v -672 -640 -0.41
v -656 -640 -0.41
v -960 -720 -0.45
v -976 -720 -0.45
v -976 -704 -0.45
v -960 -704 -0.45
v -704 -736 -0.46
v -720 -736 -0.46
v -720 -720 -0.46
v -704 -720 -0.46
v -720 -736 -0.46
v -736 -736 -0.46
v -736 -720 -0.46
v -720 -720 -0.46
v -736 -736 -0.46
v -752 -736 -0.46
v -752 -720 -0.46
v -736 -720 -0.46
v -752 -736 -0.46
v -768 -736 -0.46
v -768 -720 -0.46
v -752 -720 -0.46
v -768 -736 -0.46
v -784 -736 -0.46
v -784 -720 -0.46
v -768 -720 -0.46
v -784 -736 -0.46
v -800 -736 -0.46
v -800 -720 -0.46
v -784 -720 -0.46
v -800 -736 -0.46
v -816 -736 -0.46
v -816 -720 -0.46
v -800 -720 -0.46
v -816 -736 -0.46
v -832 -736 -0.46
v -832 -720 -0.46
v -816 -720 -0.46
v -704 -752 -0.47
v -720 -752 -0.47
v -720 -736 -0.47
v -704 -736 -0.47
v -720 -752 -0.47
v -736 -752 -0.47
v -736 -736 -0.47
v -720 -736 -0.47
v -736 -752 -0.47
v -752 -752 -0.47
v -752 -736 -0.47
v -736 -736 -0.47
v -752 -752 -0.47
v -768 -752 -0.47
v -768 -736 -0.47
v -752 -736 -0.47
v -768 -752 -0.47
v -784 -752 -0.47
v -784 -736 -0.47
v -768 -736 -0.47
v -784 -752 -0.47
v -800 -752 -0.47
v -800 -736 -0.47
v -784 -736 -0.47
v -800 -752 -0.47
v -816 -752 -0.47
v -816 -736 -0.47
v -800 -736 -0.47
v -816 -752 -0.47
v -832 -752 -0.47
v -832 -736 -0.47
v -816 -736 -0.47
v -704 -768 -0.48
v -720 -768 -0.48
v -720 -752 -0.48
v -704 -752 -0.48
v -720 -768 -0.48
v -736 -768 -0.48
v -736 -752 -0.48
v -720 -752 -0.48
v -736 -768 -0.48
v -752 -768 -0.48
v -752 -752 -0.48
v -736 -752 -0.48
v -752 -768 -0.48
v -768 -768 -0.48
v -768 -752 -0.48
v -752 -752 -0.48
v -768 -768 -0.48
v -784 -768 -0.48
v -784 -752 -0.48
v -768 -752 -0.48
v -784 -768 -0.48
v -800 -768 -0.48
v -800 -752 -0.48
v -784 -752 -0.48
v -800 -768 -0.48
v -816 -768 -0.48
v -816 -752 -0.48
v -800 -752 -0.48
v -816 -768 -0.48
v -832 -768 -0.48
v -832 -752 -0.48
v -816 -752 -0.48
v -704 -784 -0.49
v -720 -784 -0.49
v -720 -768 -0.49
v -704 -768 -0.49
v -720 -784 -0.49
v -736 -784 -0.49
v -736 -768 -0.49
v -720 -768 -0.49
v -736 -784 -0.49
v -752 -784 -0.49
v -752 -768 -0.49
v -736 -768 -0.49
v -752 -784 -0.49
v -768 -784 -0.49
v -768 -768 -0.49
v -752 -768 -0.49
v -768 -784 -0.49
v -784 -784 -0.49
v -784 -768 -0.49
v -768 -768 -0.49
v -784 -784 -0.49
v -800 -784 -0.49
v -800 -768 -0.49
v -784 -768 -0.49
v -800 -784 -0.49
v -816 -784 -0.49
v -816 -768 -0.49
v -800 -768 -0.49
v -816 -784 -0.49
v -832 -784 -0.49
v -832 -768 -0.49
v -816 -768 -0.49
v -704 -800 -0.5
v -720 -800 -0.5
v -720 -784 -0.5
v -704 -784 -0.5
v -720 -800 -0.5
v -736 -800 -0.5
v -736 -784 -0.5
v -720 -784 -0.5
v -736 -800 -0.5
v -752 -800 -0.5
v -752 -784 -0.5
v -736 -784 -0.5
v -752 -800 -0.5
v -768 -800 -0.5
v -768 -784 -0.5
v -752 -784 -0.5
v -768 -800 -0.5
v -784 -800 -0.5
v -784 -784 -0.5
v -768 -784 -0.5
v -784 -800 -0.5
v -800 -800 -0.5
v -800 -784 -0.5
v -784 -784 -0.5
v -800 -800 -0.5
v -816 -800 -0.5
v -816 -784 -0.5
v -800 -784 -0.5
v -816 -800 -0.5
v -832 -800 -0.5
v -832 -784 -0.5
v -816 -784 -0.5
v -704 -816 -0.51
v -720 -816 -0.51
v -720 -800 -0.51
v -704 -800 -0.51
v -720 -816 -0.51
v -736 -816 -0.51
v -736 -800 -0.51
v -720 -800 -0.51
v -736 -816 -0.51
v -752 -816 -0.51
v -752 -800 -0.51
v -736 -800 -0.51
v -752 -816 -0.51
v -768 -816 -0.51
v -768 -800 -0.51
v -752 -800 -0.51
v -768 -816 -0.51
v -784 -816 -0.51
v -784 -800 -0.51
v -768 -800 -0.51
v -784 -816 -0.51
v -800 -816 -0.51
v -800 -800 -0.51
v -784 -800 -0.51
v -800 -816 -0.51
v -816 -816 -0.51
v -816 -800 -0.51
v -800 -800 -0.51
v -816 -816 -0.51
v -832 -816 -0.51
v -832 -800 -0.51
v -816 -800 -0.51
v -704 -832 -0.52
v -720 -832 -0.52
v -720 -816 -0.52
v -704 -816 -0.52
v -720 -832 -0.52
v -736 -832 -0.52
v -736 -816 -0.52
v -720 -816 -0.52
v -736 -832 -0.52
v -752 -832 -0.52
v -752 -816 -0.52
v -736 -816 -0.52
v -752 -832 -0.52
v -768 -832 -0.52
v -768 -816 -0.52
v -752 -816 -0.52
v -768 -832 -0.52
v -784 -832 -0.52
v -784 -816 -0.52
v -768 -816 -0.52
v -784 -832 -0.52
v -800 -832 -0.52
v -800 -816 -0.52
v -784 -816 -0.52
v -800 -832 -0.52
v -816 -832 -0.52
v -816 -816 -0.52
v -800 -816 -0.52
v -816 -832 -0.52
v -832 -832 -0.52
v -832 -816 -0.52
v -816 -816 -0.52
v -992 -976 -0.61
v -1008 -976 -0.61
v -1008 -960 -0.61
v -992 -960 -0.61
v -1008 -976 -0.61
v -1024 -976 -0.61
v -1024 -960 -0.61
v -1008 -960 -0.61
v -976 -1008 -0.63
v -992 -1008 -0.63
v -992 -992 -0.63
v -976 -992 -0.63

# Texture cooridinates (Count = 88)
vt 0.1756198 0.4524715
vt 0.1921488 0.4524715
vt 0.1921488 0.4828897
vt 0.1756198 0.4828897
vt 0.1931818 0.4524715
vt 0.2097107 0.4524715
vt 0.2097107 0.4828897
vt 0.1931818 0.4828897
vt 0.2107438 0.4524715
vt 0.2272727 0.4524715
vt 0.2272727 0.4828897
vt 0.2107438 0.4828897
vt 0.1756198 0.4201521
vt 0.1921488 0.4201521
vt 0.1921488 0.4505703
vt 0.1756198 0.4505703
vt 0.1931818 0.4201521
vt 0.2097107 0.4201521
vt 0.2097107 0.4505703
vt 0.1931818 0.4505703
vt 0.2107438 0.4201521
vt 0.2272727 0.4201521
vt 0.2272727 0.4505703
vt 0.2107438 0.4505703
vt 0.1756198 0.3878327
vt 0.1921488 0.3878327
vt 0.1921488 0.418251
vt 0.1756198 0.418251
vt 0.1931818 0.3878327
vt 0.2097107 0.3878327
vt 0.2097107 0.418251
vt 0.1931818 0.418251
vt 0.2107438 0.3878327
vt 0.2272727 0.3878327
vt 0.2272727 0.418251
vt 0.2107438 0.418251
vt 0.4039256 0.3555133
vt 0.4204545 0.3555133
vt 0.4204545 0.3859316
vt 0.4039256 0.3859316
vt 0.1756198 0.3555133
vt 0.1921488 0.3555133
vt 0.1921488 0.3859316
vt 0.1756198 0.3859316
vt 0.1931818 0.3555133
vt 0.2097107 0.3555133
vt 0.2097107 0.3859316
vt 0.1931818 0.3859316
vt 0.2107438 0.3555133
vt 0.2272727 0.3555133
vt 0.2272727 0.3859316
vt 0.2107438 0.3859316
vt 0.1756198 0.3231939
vt 0.1921488 0.3231939
vt 0.1921488 0.3536122
vt 0.1756198 0.3536122
vt 0.1931818 0.3231939
vt 0.2097107 0.3231939
vt 0.2097107 0.3536122
vt 0.1931818 0.3536122
vt 0.2107438 0.3231939
vt 0.2272727 0.3231939
vt 0.2272727 0.3536122
vt 0.2107438 0.3536122
vt 0.1756198 0.2908745
vt 0.1921488 0.2908745
vt 0.1921488 0.3212928
vt 0.1756198 0.3212928
vt 0.1931818 0.2908745
vt 0.2097107 0.2908745
vt 0.2097107 0.3212928
vt 0.1931818 0.3212928
vt 0.2107438 0.2908745
vt 0.2272727 0.2908745
vt 0.2272727 0.3212928
vt 0.2107438 0.3212928
vt 0.1931818 0.2262357
vt 0.2097107 0.2262357
vt 0.2097107 0.256654
vt 0.1931818 0.256654
vt 0.3863636 0.8403042
vt 0.4028926 0.8403042
vt 0.4028926 0.8707224
vt 0.3863636 0.8707224
vt 0.1931818 0.1939163
vt 0.2097107 0.1939163
vt 0.2097107 0.2243346
vt 0.1931818 0.2243346

# Normal
vn 0 0 -1

# Mesh description
g overworld_final_mesh_0002

# Faces
f 1/1/1 2/2/1 3/3/1 4/4/1
f 5/5/1 6/6/1 7/7/1 8/8/1
f 9/5/1 10/6/1 11/7/1 12/8/1
f 13/5/1 14/6/1 15/7/1 16/8/1
f 17/5/1 18/6/1 19/7/1 20/8/1
f 21/5/1 22/6/1 23/7/1 24/8/1
f 25/5/1 26/6/1 27/7/1 28/8/1
f 29/5/1 30/6/1 31/7/1 32/8/1
f 33/9/1 34/10/1 35/11/1 36/12/1
f 37/13/1 38/14/1 39/15/1 40/16/1
f 41/17/1 42/18/1 43/19/1 44/20/1
f 45/17/1 46/18/1 47/19/1 48/20/1
f 49/17/1 50/18/1 51/19/1 52/20/1
f 53/17/1 54/18/1 55/19/1 56/20/1
f 57/17/1 58/18/1 59/19/1 60/20/1
f 61/17/1 62/18/1 63/19/1 64/20/1
f 65/17/1 66/18/1 67/19/1 68/20/1
f 69/21/1 70/22/1 71/23/1 72/24/1
f 73/13/1 74/14/1 75/15/1 76/16/1
f 77/17/1 78/18/1 79/19/1 80/20/1
f 81/17/1 82/18/1 83/19/1 84/20/1
f 85/17/1 86/18/1 87/19/1 88/20/1
f 89/17/1 90/18/1 91/19/1 92/20/1
f 93/17/1 94/18/1 95/19/1 96/20/1
f 97/17/1 98/18/1 99/19/1 100/20/1
f 101/17/1 102/18/1 103/19/1 104/20/1
f 105/21/1 106/22/1 107/23/1 108/24/1
f 109/13/1 110/14/1 111/15/1 112/16/1
f 113/17/1 114/18/1 115/19/1 116/20/1
f 117/17/1 118/18/1 119/19/1 120/20/1
f 121/17/1 122/18/1 123/19/1 124/20/1
f 125/17/1 126/18/1 127/19/1 128/20/1
f 129/17/1 130/18/1 131/19/1 132/20/1
f 133/17/1 134/18/1 135/19/1 136/20/1
f 137/17/1 138/18/1 139/19/1 140/20/1
f 141/21/1 142/22/1 143/23/1 144/24/1
f 145/25/1 146/26/1 147/27/1 148/28/1
f 149/29/1 150/30/1 151/31/1 152/32/1
f 153/29/1 154/30/1 155/31/1 156/32/1
f 157/29/1 158/30/1 159/31/1 160/32/1
f 161/29/1 162/30/1 163/31/1 164/32/1
f 165/29/1 166/30/1 167/31/1 168/32/1
f 169/29/1 170/30/1 171/31/1 172/32/1
f 173/29/1 174/30/1 175/31/1 176/32/1
f 177/33/1 178/34/1 179/35/1 180/36/1
f 181/37/1 182/38/1 183/39/1 184/40/1
f 185/41/1 186/42/1 187/43/1 188/44/1
f 189/45/1 190/46/1 191/47/1 192/48/1
f 193/45/1 194/46/1 195/47/1 196/48/1
f 197/45/1 198/46/1 199/47/1 200/48/1
f 201/45/1 202/46/1 203/47/1 204/48/1
f 205/45/1 206/46/1 207/47/1 208/48/1
f 209/45/1 210/46/1 211/47/1 212/48/1
f 213/49/1 214/50/1 215/51/1 216/52/1
f 217/53/1 218/54/1 219/55/1 220/56/1
f 221/57/1 222/58/1 223/59/1 224/60/1
f 225/57/1 226/58/1 227/59/1 228/60/1
f 229/57/1 230/58/1 231/59/1 232/60/1
f 233/57/1 234/58/1 235/59/1 236/60/1
f 237/57/1 238/58/1 239/59/1 240/60/1
f 241/57/1 242/58/1 243/59/1 244/60/1
f 245/61/1 246/62/1 247/63/1 248/64/1
f 249/53/1 250/54/1 251/55/1 252/56/1
f 253/57/1 254/58/1 255/59/1 256/60/1
f 257/57/1 258/58/1 259/59/1 260/60/1
f 261/57/1 262/58/1 263/59/1 264/60/1
f 265/57/1 266/58/1 267/59/1 268/60/1
f 269/57/1 270/58/1 271/59/1 272/60/1
f 273/57/1 274/58/1 275/59/1 276/60/1
f 277/61/1 278/62/1 279/63/1 280/64/1
f 281/53/1 282/54/1 283/55/1 284/56/1
f 285/57/1 286/58/1 287/59/1 288/60/1
f 289/57/1 290/58/1 291/59/1 292/60/1
f 293/57/1 294/58/1 295/59/1 296/60/1
f 297/57/1 298/58/1 299/59/1 300/60/1
f 301/57/1 302/58/1 303/59/1 304/60/1
f 305/57/1 306/58/1 307/59/1 308/60/1
f 309/61/1 310/62/1 311/63/1 312/64/1
f 313/53/1 314/54/1 315/55/1 316/56/1
f 317/57/1 318/58/1 319/59/1 320/60/1
f 321/57/1 322/58/1 323/59/1 324/60/1
f 325/57/1 326/58/1 327/59/1 328/60/1
f 329/57/1 330/58/1 331/59/1 332/60/1
f 333/57/1 334/58/1 335/59/1 336/60/1
f 337/57/1 338/58/1 339/59/1 340/60/1
f 341/61/1 342/62/1 343/63/1 344/64/1
f 345/53/1 346/54/1 347/55/1 348/56/1
f 349/57/1 350/58/1 351/59/1 352/60/1
f 353/57/1 354/58/1 355/59/1 356/60/1
f 357/57/1 358/58/1 359/59/1 360/60/1
f 361/57/1 362/58/1 363/59/1 364/60/1
f 365/57/1 366/58/1 367/59/1 368/60/1
f 369/57/1 370/58/1 371/59/1 372/60/1
f 373/61/1 374/62/1 375/63/1 376/64/1
f 377/65/1 378/66/1 379/67/1 380/68/1
f 381/69/1 382/70/1 383/71/1 384/72/1
f 385/69/1 386/70/1 387/71/1 388/72/1
f 389/69/1 390/70/1 391/71/1 392/72/1
f 393/69/1 394/70/1 395/71/1 396/72/1
f 397/69/1 398/70/1 399/71/1 400/72/1
f 401/69/1 402/70/1 403/71/1 404/72/1
f 405/73/1 406/74/1 407/75/1 408/76/1
f 409/77/1 410/78/1 411/79/1 412/80/1
f 413/81/1 414/82/1 415/83/1 416/84/1
f 417/85/1 418/86/1 419/87/1 420/88/1

