# Tiled2Unity generated file. Do not modify by hand.
# Wavefront file for 'overworld_final_mesh_0006.obj'

# Vertices (Count = 176)
v -640 -560 -0.35
v -656 -560 -0.35
v -656 -544 -0.35
v -640 -544 -0.35
v -672 -560 -0.35
v -688 -560 -0.35
v -688 -544 -0.35
v -672 -544 -0.35
v -992 -592 -0.37
v -1008 -592 -0.37
v -1008 -576 -0.37
v -992 -576 -0.37
v -1024 -592 -0.37
v -1040 -592 -0.37
v -1040 -576 -0.37
v -1024 -576 -0.37
v -704 -624 -0.39
v -720 -624 -0.39
v -720 -608 -0.39
v -704 -608 -0.39
v -736 -624 -0.39
v -752 -624 -0.39
v -752 -608 -0.39
v -736 -608 -0.39
v -768 -624 -0.39
v -784 -624 -0.39
v -784 -608 -0.39
v -768 -608 -0.39
v -800 -624 -0.39
v -816 -624 -0.39
v -816 -608 -0.39
v -800 -608 -0.39
v -832 -624 -0.39
v -848 -624 -0.39
v -848 -608 -0.39
v -832 -608 -0.39
v -864 -624 -0.39
v -880 -624 -0.39
v -880 -608 -0.39
v -864 -608 -0.39
v -896 -624 -0.39
v -912 -624 -0.39
v -912 -608 -0.39
v -896 -608 -0.39
v -928 -624 -0.39
v -944 -624 -0.39
v -944 -608 -0.39
v -928 -608 -0.39
v -960 -624 -0.39
v -976 -624 -0.39
v -976 -608 -0.39
v -960 -608 -0.39
v -992 -624 -0.39
v -1008 -624 -0.39
v -1008 -608 -0.39
v -992 -608 -0.39
v -1024 -624 -0.39
v -1040 -624 -0.39
v -1040 -608 -0.39
v -1024 -608 -0.39
v -704 -672 -0.42
v -720 -672 -0.42
v -720 -656 -0.42
v -704 -656 -0.42
v -736 -672 -0.42
v -752 -672 -0.42
v -752 -656 -0.42
v -736 -656 -0.42
v -768 -672 -0.42
v -784 -672 -0.42
v -784 -656 -0.42
v -768 -656 -0.42
v -800 -672 -0.42
v -816 -672 -0.42
v -816 -656 -0.42
v -800 -656 -0.42
v -832 -672 -0.42
v -848 -672 -0.42
v -848 -656 -0.42
v -832 -656 -0.42
v -864 -672 -0.42
v -880 -672 -0.42
v -880 -656 -0.42
v -864 -656 -0.42
v -896 -672 -0.42
v -912 -672 -0.42
v -912 -656 -0.42
v -896 -656 -0.42
v -928 -672 -0.42
v -944 -672 -0.42
v -944 -656 -0.42
v -928 -656 -0.42
v -960 -672 -0.42
v -976 -672 -0.42
v -976 -656 -0.42
v -960 -656 -0.42
v -992 -672 -0.42
v -1008 -672 -0.42
v -1008 -656 -0.42
v -992 -656 -0.42
v -1024 -672 -0.42
v -1040 -672 -0.42
v -1040 -656 -0.42
v -1024 -656 -0.42
v -640 -704 -0.44
v -656 -704 -0.44
v -656 -688 -0.44
v -640 -688 -0.44
v -688 -704 -0.44
v -704 -704 -0.44
v -704 -688 -0.44
v -688 -688 -0.44
v -928 -704 -0.44
v -944 -704 -0.44
v -944 -688 -0.44
v -928 -688 -0.44
v -992 -704 -0.44
v -1008 -704 -0.44
v -1008 -688 -0.44
v -992 -688 -0.44
v -864 -752 -0.47
v -880 -752 -0.47
v -880 -736 -0.47
v -864 -736 -0.47
v -592 -800 -0.5
v -608 -800 -0.5
v -608 -784 -0.5
v -592 -784 -0.5
v -768 -912 -0.57
v -784 -912 -0.57
v -784 -896 -0.57
v -768 -896 -0.57
v -816 -912 -0.57
v -832 -912 -0.57
v -832 -896 -0.57
v -816 -896 -0.57
v -928 -912 -0.57
v -944 -912 -0.57
v -944 -896 -0.57
v -928 -896 -0.57
v -976 -912 -0.57
v -992 -912 -0.57
v -992 -896 -0.57
v -976 -896 -0.57
v -656 -944 -0.59
v -672 -944 -0.59
v -672 -928 -0.59
v -656 -928 -0.59
v -688 -944 -0.59
v -704 -944 -0.59
v -704 -928 -0.59
v -688 -928 -0.59
v -720 -944 -0.59
v -736 -944 -0.59
v -736 -928 -0.59
v -720 -928 -0.59
v -752 -944 -0.59
v -768 -944 -0.59
v -768 -928 -0.59
v -752 -928 -0.59
v -608 -960 -0.6
v -624 -960 -0.6
v -624 -944 -0.6
v -608 -944 -0.6
v -816 -960 -0.6
v -832 -960 -0.6
v -832 -944 -0.6
v -816 -944 -0.6
v -608 -1008 -0.63
v -624 -1008 -0.63
v -624 -992 -0.63
v -608 -992 -0.63
v -816 -1008 -0.63
v -832 -1008 -0.63
v -832 -992 -0.63
v -816 -992 -0.63

# Texture cooridinates (Count = 4)
vt 0.2985537 0.7110266
vt 0.3150826 0.7110266
vt 0.3150826 0.7414448
vt 0.2985537 0.7414448

# Normal
vn 0 0 -1

# Mesh description
g overworld_final_mesh_0006

# Faces
f 1/1/1 2/2/1 3/3/1 4/4/1
f 5/1/1 6/2/1 7/3/1 8/4/1
f 9/1/1 10/2/1 11/3/1 12/4/1
f 13/1/1 14/2/1 15/3/1 16/4/1
f 17/1/1 18/2/1 19/3/1 20/4/1
f 21/1/1 22/2/1 23/3/1 24/4/1
f 25/1/1 26/2/1 27/3/1 28/4/1
f 29/1/1 30/2/1 31/3/1 32/4/1
f 33/1/1 34/2/1 35/3/1 36/4/1
f 37/1/1 38/2/1 39/3/1 40/4/1
f 41/1/1 42/2/1 43/3/1 44/4/1
f 45/1/1 46/2/1 47/3/1 48/4/1
f 49/1/1 50/2/1 51/3/1 52/4/1
f 53/1/1 54/2/1 55/3/1 56/4/1
f 57/1/1 58/2/1 59/3/1 60/4/1
f 61/1/1 62/2/1 63/3/1 64/4/1
f 65/1/1 66/2/1 67/3/1 68/4/1
f 69/1/1 70/2/1 71/3/1 72/4/1
f 73/1/1 74/2/1 75/3/1 76/4/1
f 77/1/1 78/2/1 79/3/1 80/4/1
f 81/1/1 82/2/1 83/3/1 84/4/1
f 85/1/1 86/2/1 87/3/1 88/4/1
f 89/1/1 90/2/1 91/3/1 92/4/1
f 93/1/1 94/2/1 95/3/1 96/4/1
f 97/1/1 98/2/1 99/3/1 100/4/1
f 101/1/1 102/2/1 103/3/1 104/4/1
f 105/1/1 106/2/1 107/3/1 108/4/1
f 109/1/1 110/2/1 111/3/1 112/4/1
f 113/1/1 114/2/1 115/3/1 116/4/1
f 117/1/1 118/2/1 119/3/1 120/4/1
f 121/1/1 122/2/1 123/3/1 124/4/1
f 125/1/1 126/2/1 127/3/1 128/4/1
f 129/1/1 130/2/1 131/3/1 132/4/1
f 133/1/1 134/2/1 135/3/1 136/4/1
f 137/1/1 138/2/1 139/3/1 140/4/1
f 141/1/1 142/2/1 143/3/1 144/4/1
f 145/1/1 146/2/1 147/3/1 148/4/1
f 149/1/1 150/2/1 151/3/1 152/4/1
f 153/1/1 154/2/1 155/3/1 156/4/1
f 157/1/1 158/2/1 159/3/1 160/4/1
f 161/1/1 162/2/1 163/3/1 164/4/1
f 165/1/1 166/2/1 167/3/1 168/4/1
f 169/1/1 170/2/1 171/3/1 172/4/1
f 173/1/1 174/2/1 175/3/1 176/4/1

