# Tiled2Unity generated file. Do not modify by hand.
# Wavefront file for 'overworld_final_mesh_0013.obj'

# Vertices (Count = 28)
v -720 -720 -0.45
v -736 -720 -0.45
v -736 -704 -0.45
v -720 -704 -0.45
v -736 -720 -0.45
v -752 -720 -0.45
v -752 -704 -0.45
v -736 -704 -0.45
v -768 -720 -0.45
v -784 -720 -0.45
v -784 -704 -0.45
v -768 -704 -0.45
v -800 -720 -0.45
v -816 -720 -0.45
v -816 -704 -0.45
v -800 -704 -0.45
v -816 -720 -0.45
v -832 -720 -0.45
v -832 -704 -0.45
v -816 -704 -0.45
v -800 -752 -0.47
v -816 -752 -0.47
v -816 -736 -0.47
v -800 -736 -0.47
v -800 -784 -0.49
v -816 -784 -0.49
v -816 -768 -0.49
v -800 -768 -0.49

# Texture cooridinates (Count = 12)
vt 0 0
vt 0.25 0
vt 0.25 1
vt 0 1
vt 0.265625 0
vt 0.515625 0
vt 0.515625 1
vt 0.265625 1
vt 0.78125 0
vt 0.53125 0
vt 0.53125 1
vt 0.78125 1

# Normal
vn 0 0 -1

# Mesh description
g overworld_final_mesh_0013

# Faces
f 1/1/1 2/2/1 3/3/1 4/4/1
f 5/5/1 6/6/1 7/7/1 8/8/1
f 9/1/1 10/2/1 11/3/1 12/4/1
f 13/1/1 14/2/1 15/3/1 16/4/1
f 17/5/1 18/6/1 19/7/1 20/8/1
f 21/9/1 22/10/1 23/11/1 24/12/1
f 25/9/1 26/10/1 27/11/1 28/12/1

