# Tiled2Unity generated file. Do not modify by hand.
# Wavefront file for 'Arena_test_mesh_0002.obj'

# Vertices (Count = 44)
v -992 -832 -0.6933333
v -1008 -832 -0.6933333
v -1008 -816 -0.6933333
v -992 -816 -0.6933333
v -160 -960 -0.8
v -176 -960 -0.8
v -176 -944 -0.8
v -160 -944 -0.8
v -144 -976 -0.8133333
v -160 -976 -0.8133333
v -160 -960 -0.8133333
v -144 -960 -0.8133333
v -1072 -1056 -0.88
v -1088 -1056 -0.88
v -1088 -1040 -0.88
v -1072 -1040 -0.88
v -1056 -1056 -0.88
v -1072 -1056 -0.88
v -1072 -1040 -0.88
v -1056 -1040 -0.88
v -1040 -1056 -0.88
v -1056 -1056 -0.88
v -1056 -1040 -0.88
v -1040 -1040 -0.88
v -1024 -1056 -0.88
v -1040 -1056 -0.88
v -1040 -1040 -0.88
v -1024 -1040 -0.88
v -1008 -1056 -0.88
v -1024 -1056 -0.88
v -1024 -1040 -0.88
v -1008 -1040 -0.88
v -1072 -1072 -0.8933333
v -1088 -1072 -0.8933333
v -1088 -1056 -0.8933333
v -1072 -1056 -0.8933333
v -1072 -1088 -0.9066667
v -1088 -1088 -0.9066667
v -1088 -1072 -0.9066667
v -1072 -1072 -0.9066667
v -1024 -1088 -0.9066667
v -1040 -1088 -0.9066667
v -1040 -1072 -0.9066667
v -1024 -1072 -0.9066667

# Texture cooridinates (Count = 44)
vt 0.2458678 0.9695817
vt 0.2623967 0.9695817
vt 0.2623967 1
vt 0.2458678 1
vt 0.5092975 0.6463878
vt 0.5258265 0.6463878
vt 0.5258265 0.6768061
vt 0.5092975 0.6768061
vt 0.5444215 0.9695817
vt 0.5609504 0.9695817
vt 0.5609504 1
vt 0.5444215 1
vt 0.8780992 0.5817491
vt 0.8946281 0.5817491
vt 0.8946281 0.6121673
vt 0.8780992 0.6121673
vt 0.8605372 0.5817491
vt 0.8770661 0.5817491
vt 0.8770661 0.6121673
vt 0.8605372 0.6121673
vt 0.8429752 0.5817491
vt 0.8595041 0.5817491
vt 0.8595041 0.6121673
vt 0.8429752 0.6121673
vt 0.8254132 0.5817491
vt 0.8419421 0.5817491
vt 0.8419421 0.6121673
vt 0.8254132 0.6121673
vt 0.8078513 0.5817491
vt 0.8243802 0.5817491
vt 0.8243802 0.6121673
vt 0.8078513 0.6121673
vt 0.4390496 0.9695817
vt 0.4555785 0.9695817
vt 0.4555785 1
vt 0.4390496 1
vt 0.3863636 0.904943
vt 0.4028926 0.904943
vt 0.4028926 0.9353612
vt 0.3863636 0.9353612
vt 0.4390496 0.8403042
vt 0.4555785 0.8403042
vt 0.4555785 0.8707224
vt 0.4390496 0.8707224

# Normal
vn 0 0 -1

# Mesh description
g Arena_test_mesh_0002

# Faces
f 1/1/1 2/2/1 3/3/1 4/4/1
f 5/5/1 6/6/1 7/7/1 8/8/1
f 9/9/1 10/10/1 11/11/1 12/12/1
f 13/13/1 14/14/1 15/15/1 16/16/1
f 17/17/1 18/18/1 19/19/1 20/20/1
f 21/21/1 22/22/1 23/23/1 24/24/1
f 25/25/1 26/26/1 27/27/1 28/28/1
f 29/29/1 30/30/1 31/31/1 32/32/1
f 33/33/1 34/34/1 35/35/1 36/36/1
f 37/37/1 38/38/1 39/39/1 40/40/1
f 41/41/1 42/42/1 43/43/1 44/44/1

